<!-- <svg width="414" height="81" viewBox="0 0 414 81" fill="none" xmlns="http://www.w3.org/2000/svg">
viewBox="0 0 300.5 75.2"
-->

<svg width="500" height="75" viewBox="0 0 500 75" xmlns="http://www.w3.org/2000/svg">
<g id="svgGroup" stroke-linecap="round" fill-rule="evenodd" font-size="1pt" stroke="#000" stroke-width="0.25mm" fill="#fff" style="stroke:#000;stroke-width:0.25mm;fill:#fff"><path d="M 250 74 L 240.1 74 L 223.7 24.4 L 232 21.5 L 245.4 63.8 L 257.6 25.7 L 267.3 25.7 L 279.2 63.8 L 292.5 21.5 L 300.5 24.4 L 284 74 L 274.1 74 L 262.1 35.3 L 250 74 Z M 97.3 74 L 87.8 74 L 87.8 4 L 129.3 4 L 129.3 12.2 L 97.3 12.2 L 97.3 33.6 L 124 33.6 L 124 41.4 L 97.3 41.4 L 97.3 74 Z M 136.8 57.7 L 136.8 0 L 145.8 0 L 145.8 56.8 A 20.644 20.644 0 0 0 145.988 59.688 Q 146.451 62.952 148.05 64.8 A 7.363 7.363 0 0 0 152.634 67.276 A 10.724 10.724 0 0 0 154.3 67.4 Q 156.2 67.4 158.05 66.95 A 22.192 22.192 0 0 0 159.513 66.544 Q 160.449 66.247 161.2 65.9 L 163.4 73.2 Q 162.001 73.822 160.088 74.323 A 34.978 34.978 0 0 1 158.95 74.6 A 23.816 23.816 0 0 1 155.795 75.085 A 30.514 30.514 0 0 1 153.1 75.2 A 20.862 20.862 0 0 1 148.21 74.646 A 17.544 17.544 0 0 1 144.8 73.45 A 12.683 12.683 0 0 1 139.475 68.685 A 15.856 15.856 0 0 1 138.95 67.8 Q 137.216 64.654 136.881 60.012 A 32.105 32.105 0 0 1 136.8 57.7 Z M 179 71.75 A 24.559 24.559 0 0 0 183.598 73.84 Q 187.654 75.2 192.3 75.2 Q 199.7 75.2 205.55 71.8 Q 211.4 68.4 214.8 62.25 A 26.255 26.255 0 0 0 217.453 55.109 A 34.184 34.184 0 0 0 218.2 47.8 A 34.542 34.542 0 0 0 217.715 41.891 A 25.795 25.795 0 0 0 214.75 33.45 Q 211.3 27.4 205.45 24.1 A 24.848 24.848 0 0 0 200.809 22.073 A 27.738 27.738 0 0 0 192.3 20.8 A 31.325 31.325 0 0 0 190.72 20.839 A 26.169 26.169 0 0 0 179.1 24.1 Q 173.2 27.4 169.8 33.5 A 26.023 26.023 0 0 0 167.051 41.09 A 35.006 35.006 0 0 0 166.4 48 A 34.82 34.82 0 0 0 166.665 52.354 A 27.451 27.451 0 0 0 169.75 62.15 Q 173.1 68.3 179 71.75 Z M 10.8 74 L 1.8 74 L 1.8 22 L 10.8 22 L 10.8 74 Z M 192.3 67.2 Q 200.2 67.2 204.6 61.85 A 18.802 18.802 0 0 0 208.42 53.76 A 27.105 27.105 0 0 0 209 48 Q 209 42.8 206.8 38.45 A 19.198 19.198 0 0 0 202.628 32.881 A 18.17 18.17 0 0 0 200.85 31.45 Q 197.1 28.8 192.3 28.8 A 19.249 19.249 0 0 0 187.074 29.472 A 14.037 14.037 0 0 0 180 34 A 17.878 17.878 0 0 0 176.326 41.374 Q 175.6 44.306 175.6 47.8 Q 175.6 53 177.8 57.45 A 19.437 19.437 0 0 0 181.33 62.49 A 17.627 17.627 0 0 0 183.75 64.55 Q 187.5 67.2 192.3 67.2 Z M 65.8 43.8 L 31.8 43.8 L 31.8 35.6 L 65.8 35.6 L 65.8 43.8 Z M 1.937 11.288 A 5.973 5.973 0 0 0 6.3 13.1 A 8.175 8.175 0 0 0 7.796 12.969 A 5.647 5.647 0 0 0 10.9 11.35 Q 12.6 9.6 12.6 6.8 A 7.26 7.26 0 0 0 12.6 6.719 A 6.06 6.06 0 0 0 10.75 2.35 A 7.395 7.395 0 0 0 10.692 2.293 A 6.059 6.059 0 0 0 6.3 0.5 A 8.264 8.264 0 0 0 4.644 0.658 A 5.661 5.661 0 0 0 1.7 2.2 A 5.588 5.588 0 0 0 0.229 4.832 A 7.987 7.987 0 0 0 0 6.8 A 5.992 5.992 0 0 0 0.492 9.219 A 6.643 6.643 0 0 0 1.85 11.2 A 7.466 7.466 0 0 0 1.937 11.288 Z" vector-effect="non-scaling-stroke"/>
</g>
</svg>
